<mxfile host="app.diagrams.net" modified="2021-03-13T06:41:56.006Z" agent="5.0 (Windows NT 10.0; Win64; x64) AppleWebKit/537.36 (KHTML, like Gecko) Chrome/89.0.4389.82 Safari/537.36" etag="kux2atKDj0_8VGXckqfi" version="14.3.0" type="github">
  <diagram id="LU_wR9Oucnrtn5INqwTs" name="Page-1">
    <mxGraphModel dx="2097" dy="1351" grid="0" gridSize="10" guides="0" tooltips="1" connect="1" arrows="1" fold="1" page="0" pageScale="1" pageWidth="827" pageHeight="1169" math="0" shadow="0">
      <root>
        <mxCell id="0" />
        <mxCell id="1" parent="0" />
        <mxCell id="Y6fiSqiyJo7aScvxUJa_-7" value="" style="rounded=0;whiteSpace=wrap;html=1;dashed=1;fillColor=#d5e8d4;strokeColor=#82b366;" vertex="1" parent="1">
          <mxGeometry x="75" y="532" width="450" height="560" as="geometry" />
        </mxCell>
        <mxCell id="Y6fiSqiyJo7aScvxUJa_-8" value="" style="rounded=0;whiteSpace=wrap;html=1;dashed=1;fillColor=#d5e8d4;strokeColor=#82b366;" vertex="1" parent="1">
          <mxGeometry x="75" y="-352" width="450" height="560" as="geometry" />
        </mxCell>
        <mxCell id="Y6fiSqiyJo7aScvxUJa_-1" value="" style="rounded=0;whiteSpace=wrap;html=1;fillColor=#60a917;strokeColor=#2D7600;fontColor=#ffffff;" vertex="1" parent="1">
          <mxGeometry x="-10" y="190" width="620" height="360" as="geometry" />
        </mxCell>
        <mxCell id="Y6fiSqiyJo7aScvxUJa_-3" value="" style="rounded=0;whiteSpace=wrap;html=1;fillColor=#60a917;strokeColor=#2D7600;fontColor=#ffffff;" vertex="1" parent="1">
          <mxGeometry x="590" y="190" width="20" height="360" as="geometry" />
        </mxCell>
        <mxCell id="Y6fiSqiyJo7aScvxUJa_-4" value="" style="rounded=1;whiteSpace=wrap;html=1;fillColor=#008a00;strokeColor=#005700;fontColor=#ffffff;" vertex="1" parent="1">
          <mxGeometry x="590" y="270" width="20" height="70" as="geometry" />
        </mxCell>
        <mxCell id="Y6fiSqiyJo7aScvxUJa_-6" value="" style="rounded=0;whiteSpace=wrap;html=1;fillColor=#d5e8d4;strokeColor=#82b366;" vertex="1" parent="1">
          <mxGeometry x="75" y="190" width="450" height="360" as="geometry" />
        </mxCell>
        <mxCell id="Y6fiSqiyJo7aScvxUJa_-10" value="" style="curved=1;endArrow=classic;html=1;" edge="1" parent="1">
          <mxGeometry width="50" height="50" relative="1" as="geometry">
            <mxPoint x="1401" y="82" as="sourcePoint" />
            <mxPoint x="1451" y="2" as="targetPoint" />
            <Array as="points">
              <mxPoint x="1451" y="82" />
              <mxPoint x="1401" y="32" />
            </Array>
          </mxGeometry>
        </mxCell>
        <mxCell id="Y6fiSqiyJo7aScvxUJa_-11" value="&lt;p class=&quot;MsoNormal&quot;&gt;&lt;span style=&quot;font-family: &amp;#34;times new roman&amp;#34; ; font-size: 10.5000pt&quot;&gt;scorller&lt;/span&gt;&lt;/p&gt;" style="text;html=1;strokeColor=none;fillColor=none;align=center;verticalAlign=middle;whiteSpace=wrap;rounded=0;dashed=1;" vertex="1" parent="1">
          <mxGeometry x="1451" y="-18" width="40" height="20" as="geometry" />
        </mxCell>
        <mxCell id="Y6fiSqiyJo7aScvxUJa_-13" value="" style="curved=1;endArrow=classic;html=1;" edge="1" parent="1">
          <mxGeometry width="50" height="50" relative="1" as="geometry">
            <mxPoint x="520" y="100" as="sourcePoint" />
            <mxPoint x="580" y="20" as="targetPoint" />
            <Array as="points">
              <mxPoint x="570" y="100" />
              <mxPoint x="520" y="50" />
            </Array>
          </mxGeometry>
        </mxCell>
        <mxCell id="Y6fiSqiyJo7aScvxUJa_-14" value="&lt;p class=&quot;MsoNormal&quot;&gt;&lt;span style=&quot;font-size: 10.5000pt&quot;&gt;listContainer&lt;/span&gt;&lt;/p&gt;" style="text;html=1;strokeColor=none;fillColor=none;align=center;verticalAlign=middle;whiteSpace=wrap;rounded=0;dashed=1;" vertex="1" parent="1">
          <mxGeometry x="580" width="40" height="20" as="geometry" />
        </mxCell>
        <mxCell id="Y6fiSqiyJo7aScvxUJa_-16" value="" style="rounded=0;whiteSpace=wrap;html=1;fillColor=#60a917;strokeColor=#2D7600;fontColor=#ffffff;" vertex="1" parent="1">
          <mxGeometry x="1378" y="136" width="43" height="403" as="geometry" />
        </mxCell>
        <mxCell id="Y6fiSqiyJo7aScvxUJa_-17" value="" style="rounded=0;whiteSpace=wrap;html=1;fillColor=#d5e8d4;strokeColor=#82b366;" vertex="1" parent="1">
          <mxGeometry x="1391" y="-1" width="20" height="1009" as="geometry" />
        </mxCell>
        <mxCell id="Y6fiSqiyJo7aScvxUJa_-18" value="" style="rounded=1;whiteSpace=wrap;html=1;fillColor=#f8cecc;strokeColor=#b85450;" vertex="1" parent="1">
          <mxGeometry x="1391" y="216" width="20" height="70" as="geometry" />
        </mxCell>
        <mxCell id="Y6fiSqiyJo7aScvxUJa_-19" value="" style="rounded=0;whiteSpace=wrap;html=1;fillColor=#d5e8d4;strokeColor=#82b366;" vertex="1" parent="1">
          <mxGeometry x="917" y="134" width="450" height="405" as="geometry" />
        </mxCell>
        <mxCell id="Y6fiSqiyJo7aScvxUJa_-20" value="" style="curved=1;endArrow=classic;html=1;" edge="1" parent="1">
          <mxGeometry width="50" height="50" relative="1" as="geometry">
            <mxPoint x="1416" y="430" as="sourcePoint" />
            <mxPoint x="1476" y="350" as="targetPoint" />
            <Array as="points">
              <mxPoint x="1466" y="430" />
              <mxPoint x="1416" y="380" />
            </Array>
          </mxGeometry>
        </mxCell>
        <mxCell id="Y6fiSqiyJo7aScvxUJa_-22" value="scorllerBox" style="text;html=1;strokeColor=none;fillColor=none;align=center;verticalAlign=middle;whiteSpace=wrap;rounded=0;dashed=1;" vertex="1" parent="1">
          <mxGeometry x="1476" y="326" width="40" height="20" as="geometry" />
        </mxCell>
        <mxCell id="Y6fiSqiyJo7aScvxUJa_-23" value="" style="curved=1;endArrow=classic;html=1;" edge="1" parent="1">
          <mxGeometry width="50" height="50" relative="1" as="geometry">
            <mxPoint x="1026" y="163" as="sourcePoint" />
            <mxPoint x="1086" y="83" as="targetPoint" />
            <Array as="points">
              <mxPoint x="1076" y="163" />
              <mxPoint x="1026" y="113" />
            </Array>
          </mxGeometry>
        </mxCell>
        <mxCell id="Y6fiSqiyJo7aScvxUJa_-24" value="&lt;p class=&quot;MsoNormal&quot;&gt;&lt;span style=&quot;font-size: 10.5000pt&quot;&gt;dataList&lt;/span&gt;&lt;/p&gt;" style="text;html=1;strokeColor=none;fillColor=none;align=center;verticalAlign=middle;whiteSpace=wrap;rounded=0;dashed=1;" vertex="1" parent="1">
          <mxGeometry x="1086" y="63" width="40" height="20" as="geometry" />
        </mxCell>
      </root>
    </mxGraphModel>
  </diagram>
</mxfile>
